<svg width="27" height="24" viewBox="0 0 27 24" fill="none" xmlns="http://www.w3.org/2000/svg">
<path d="M13.6367 9.1425C13.0308 9.14271 12.4385 9.31048 11.9348 9.6246C11.431 9.93871 11.0385 10.3851 10.8068 10.9072C10.575 11.4294 10.5145 12.0039 10.6329 12.5581C10.7512 13.1124 11.0431 13.6214 11.4717 14.0209C11.9003 14.4205 12.4462 14.6925 13.0405 14.8027C13.6349 14.9128 14.2509 14.8562 14.8107 14.6399C15.3705 14.4236 15.8489 14.0573 16.1856 13.5874C16.5222 13.1175 16.7019 12.5651 16.7019 12C16.7013 11.2421 16.3781 10.5155 15.8034 9.97969C15.2286 9.4439 14.4494 9.14278 13.6367 9.1425ZM20.8004 6.94607C20.6444 6.57742 20.4089 6.24258 20.1084 5.96234C19.8079 5.6821 19.4489 5.46243 19.0536 5.31696C17.8473 4.87286 14.9751 4.9725 13.6367 4.9725C12.2983 4.9725 9.42903 4.86911 8.21929 5.31696C7.82399 5.46243 7.46496 5.6821 7.16447 5.96234C6.86398 6.24258 6.62843 6.57742 6.47245 6.94607C5.99683 8.07107 6.10309 10.7523 6.10309 11.9995C6.10309 13.2466 5.99683 15.9246 6.47475 17.0534C6.63073 17.422 6.86627 17.7569 7.16677 18.0371C7.46726 18.3174 7.82629 18.537 8.22158 18.6825C9.42788 19.1266 12.3 19.027 13.639 19.027C14.978 19.027 17.8461 19.1304 19.0559 18.6825C19.4512 18.537 19.8102 18.3174 20.1107 18.0371C20.4112 17.7569 20.6467 17.422 20.8027 17.0534C21.2824 15.9284 21.1721 13.2471 21.1721 12C21.1721 10.7529 21.2824 8.07536 20.8027 6.94661L20.8004 6.94607ZM13.6367 16.3929C12.7051 16.3929 11.7944 16.1352 11.0198 15.6525C10.2452 15.1698 9.64147 14.4838 9.28496 13.6811C8.92845 12.8784 8.83517 11.9951 9.01692 11.143C9.19866 10.2909 9.64728 9.50813 10.306 8.89378C10.9648 8.27943 11.8041 7.86105 12.7178 7.69155C13.6315 7.52205 14.5786 7.60904 15.4393 7.94153C16.3 8.27401 17.0356 8.83706 17.5532 9.55946C18.0708 10.2819 18.347 11.1312 18.347 12C18.3478 12.5771 18.2265 13.1486 17.99 13.6819C17.7536 14.2152 17.4066 14.6997 16.9691 15.1078C16.5316 15.5158 16.012 15.8394 15.4402 16.0599C14.8683 16.2804 14.2555 16.3936 13.6367 16.3929ZM18.5412 8.44821C18.3237 8.44832 18.1111 8.38827 17.9302 8.27567C17.7493 8.16307 17.6083 8.00297 17.525 7.81562C17.4417 7.62827 17.4199 7.42208 17.4622 7.22315C17.5046 7.02421 17.6092 6.84146 17.763 6.69801C17.9167 6.55456 18.1126 6.45685 18.3259 6.41724C18.5392 6.37763 18.7603 6.39791 18.9612 6.4755C19.1622 6.55309 19.3339 6.68451 19.4547 6.85314C19.5756 7.02177 19.6401 7.22004 19.6401 7.42286C19.6407 7.55754 19.6128 7.69101 19.5579 7.81562C19.5031 7.94022 19.4224 8.0535 19.3205 8.14896C19.2187 8.24442 19.0976 8.32019 18.9642 8.37191C18.8309 8.42363 18.6879 8.45029 18.5435 8.45036L18.5412 8.44821ZM23.7466 0H3.52679C2.79552 0 2.0942 0.270918 1.57711 0.753154C1.06003 1.23539 0.769531 1.88944 0.769531 2.57143L0.769531 21.4286C0.769531 22.1106 1.06003 22.7646 1.57711 23.2468C2.0942 23.7291 2.79552 24 3.52679 24H23.7466C24.4779 24 25.1792 23.7291 25.6963 23.2468C26.2134 22.7646 26.5039 22.1106 26.5039 21.4286V2.57143C26.5039 1.88944 26.2134 1.23539 25.6963 0.753154C25.1792 0.270918 24.4779 0 23.7466 0ZM22.7632 15.5357C22.6891 16.9088 22.3531 18.1254 21.2783 19.125C20.2036 20.1246 18.9002 20.4445 17.4297 20.5098C15.9126 20.5896 11.3643 20.5896 9.84722 20.5098C8.37496 20.4407 7.07503 20.1268 5.99855 19.125C4.92207 18.1232 4.58373 16.9061 4.51365 15.5357C4.42806 14.1204 4.42806 9.87804 4.51365 8.46429C4.58775 7.09125 4.91977 5.87464 5.99855 4.875C7.07732 3.87536 8.3807 3.55929 9.84722 3.49393C11.3643 3.41411 15.9126 3.41411 17.4297 3.49393C18.9019 3.56304 20.2059 3.87696 21.2783 4.87875C22.3508 5.88054 22.6931 7.09768 22.7632 8.47071C22.8488 9.88071 22.8488 14.1193 22.7632 15.5357Z" fill="#C4C4C4"/>
</svg>
