<svg width="27" height="24" viewBox="0 0 27 24" fill="none" xmlns="http://www.w3.org/2000/svg">
<path d="M25.0878 0H1.41219C0.842814 0 0.382812 0.429 0.382812 0.96V23.04C0.382812 23.571 0.842814 24 1.41219 24H25.0878C25.6572 24 26.1172 23.571 26.1172 23.04V0.96C26.1172 0.429 25.6572 0 25.0878 0ZM20.1758 8.691C20.1854 8.832 20.1854 8.979 20.1854 9.123C20.1854 13.527 16.589 18.6 10.0171 18.6C7.99054 18.6 6.11193 18.051 4.52926 17.106C4.81878 17.136 5.09542 17.148 5.39137 17.148C7.0641 17.148 8.60173 16.62 9.82733 15.726C8.25753 15.696 6.93864 14.736 6.48829 13.416C7.03836 13.491 7.53375 13.491 8.09991 13.356C7.29161 13.2029 6.56509 12.7934 6.04378 12.1973C5.52247 11.6012 5.23852 10.8552 5.24018 10.086V10.044C5.71304 10.293 6.26955 10.446 6.85179 10.467C6.36233 10.1628 5.96092 9.75063 5.68316 9.26709C5.4054 8.78355 5.25987 8.24356 5.25948 7.695C5.25948 7.074 5.43318 6.507 5.74521 6.015C6.64239 7.04501 7.76192 7.88743 9.03106 8.4875C10.3002 9.08757 11.6905 9.43186 13.1117 9.498C12.6066 7.233 14.4209 5.4 16.6019 5.4C17.6313 5.4 18.5577 5.802 19.2107 6.45C20.0181 6.309 20.7902 6.027 21.4786 5.649C21.2116 6.42 20.6518 7.071 19.9088 7.482C20.6293 7.41 21.3242 7.224 21.9675 6.963C21.4818 7.629 20.8738 8.22 20.1758 8.691Z" fill="#C4C4C4"/>
</svg>
